<?xml version="1.0" standalone="no"?><svg xmlns="http://www.w3.org/2000/svg" viewBox="0 0 1440 320"><path fill="#029eeb" fill-opacity="1" d="M0,256L20,256C40,256,80,256,120,234.7C160,213,200,171,240,149.3C280,128,320,128,360,138.7C400,149,440,171,480,154.7C520,139,560,85,600,101.3C640,117,680,203,720,240C760,277,800,267,840,240C880,213,920,171,960,160C1000,149,1040,171,1080,165.3C1120,160,1160,128,1200,101.3C1240,75,1280,53,1320,64C1360,75,1400,117,1420,138.7L1440,160L1440,320L1420,320C1400,320,1360,320,1320,320C1280,320,1240,320,1200,320C1160,320,1120,320,1080,320C1040,320,1000,320,960,320C920,320,880,320,840,320C800,320,760,320,720,320C680,320,640,320,600,320C560,320,520,320,480,320C440,320,400,320,360,320C320,320,280,320,240,320C200,320,160,320,120,320C80,320,40,320,20,320L0,320Z"></path></svg>